# xmcd CD database file
#
# Track frame offsets:
#	150
#	18981
#	42144
#	70282
#	91490
#	120852
#	150680
#	168047
#	192992
#	215842
#	246953
#
# Disc length: 3591 seconds
#
# Revision: 1
# Processed by: cddbd v1.5.1PL0 Copyright (c) Steve Scherf et al.
# Submitted via: CDex 1.51
#
DISCID=8d0e050b
DTITLE=Various Artist - New Age Music Collection
DYEAR=1998
DGENRE=New Age
TTITLE0=Philip Chapman - Titania's Dream
TTITLE1=Mike Rowland - Mystic Angel
TTITLE2=Anthony Miles - Island Peace
TTITLE3=Patricia Spero - Reflections
TTITLE4=Phil Thornton - Spirit In Flight
TTITLE5=Stuart Jones - Timeless Nature
TTITLE6=Stephen Rhodes - Angel Of Healing
TTITLE7=Medwyn Goodal - Blossoms For Your Room
TTITLE8=Howard Green - Secrets and Sighs
TTITLE9=Asha - Lionel's Songs
TTITLE10=Terry Oldfield - Celebration In Katmandu
EXTD=YEAR: 1998
EXTT0=
EXTT1=
EXTT2=
EXTT3=
EXTT4=
EXTT5=
EXTT6=
EXTT7=
EXTT8=
EXTT9=
EXTT10=
PLAYORDER=
